<svg width="1005.2" height="97.2" viewBox="0 0 1005.2 97.2" xmlns="http://www.w3.org/2000/svg"><g id="svgGroup" stroke-linecap="round" fill-rule="evenodd" font-size="9pt" stroke="#1a1fa8" stroke-width="0.25mm" fill="#1a1fa800" style="stroke:#1a1fa8;stroke-width:0.25mm;fill:#1a1fa800"><path d="M 812.7 74 L 803.7 74 L 803.7 22 L 812.4 22 L 812.4 30.7 Q 815.2 26.5 819.5 23.65 A 17.205 17.205 0 0 1 828.702 20.809 A 20.858 20.858 0 0 1 829.3 20.8 A 20.994 20.994 0 0 1 833.717 21.24 Q 836.703 21.882 838.985 23.463 A 13.128 13.128 0 0 1 839.45 23.8 A 15.751 15.751 0 0 1 844.898 31.489 A 19.154 19.154 0 0 1 845 31.8 Q 848.1 27.2 852.35 24 A 15.669 15.669 0 0 1 859.141 21.116 A 21.446 21.446 0 0 1 862.9 20.8 A 21.437 21.437 0 0 1 867.788 21.322 Q 871.374 22.162 873.863 24.351 A 12.994 12.994 0 0 1 875.55 26.15 A 18.992 18.992 0 0 1 878.961 33.422 Q 879.7 36.472 879.7 40.1 L 879.7 74 L 870.7 74 L 870.7 40.8 A 19.042 19.042 0 0 0 870.363 37.111 Q 869.927 34.905 868.928 33.161 A 10.982 10.982 0 0 0 868.2 32.05 A 7.974 7.974 0 0 0 862.387 28.754 A 10.678 10.678 0 0 0 861.3 28.7 A 11.926 11.926 0 0 0 854.541 30.827 A 15.996 15.996 0 0 0 852.95 32.05 Q 849.1 35.4 846.2 39.9 L 846.2 74 L 837.2 74 L 837.2 40.8 A 19.042 19.042 0 0 0 836.863 37.111 Q 836.427 34.905 835.428 33.161 A 10.982 10.982 0 0 0 834.7 32.05 A 7.974 7.974 0 0 0 828.887 28.754 A 10.678 10.678 0 0 0 827.8 28.7 A 12.02 12.02 0 0 0 821.481 30.528 A 16.244 16.244 0 0 0 819.5 31.95 Q 815.6 35.2 812.7 39.6 L 812.7 74 Z M 9.5 74 L 0 74 L 0 4 L 9.5 4 L 9.5 33.9 L 44 33.9 L 44 4 L 53.5 4 L 53.5 74 L 44 74 L 44 42.1 L 9.5 42.1 L 9.5 74 Z M 535.8 74 L 526.8 74 L 526.8 0 L 535.8 0 L 535.8 30.3 Q 538.6 26.2 542.9 23.5 A 17.572 17.572 0 0 1 550.025 20.991 A 22.595 22.595 0 0 1 553 20.8 A 23.225 23.225 0 0 1 558.065 21.318 Q 563.159 22.456 566.15 26.1 Q 570.275 31.126 570.488 39.209 A 33.764 33.764 0 0 1 570.5 40.1 L 570.5 74 L 561.5 74 L 561.5 41.1 Q 561.5 35.5 558.9 32.1 A 8.42 8.42 0 0 0 552.742 28.753 A 11.979 11.979 0 0 0 551.6 28.7 A 13.23 13.23 0 0 0 544.887 30.566 A 17.586 17.586 0 0 0 542.85 31.95 Q 538.7 35.2 535.8 39.6 L 535.8 74 Z M 753.5 74 L 744.5 74 L 744.5 0 L 753.5 0 L 753.5 30.3 Q 756.3 26.2 760.6 23.5 A 17.572 17.572 0 0 1 767.725 20.991 A 22.595 22.595 0 0 1 770.7 20.8 A 23.225 23.225 0 0 1 775.765 21.318 Q 780.859 22.456 783.85 26.1 Q 787.975 31.126 788.188 39.209 A 33.764 33.764 0 0 1 788.2 40.1 L 788.2 74 L 779.2 74 L 779.2 41.1 Q 779.2 35.5 776.6 32.1 A 8.42 8.42 0 0 0 770.442 28.753 A 11.979 11.979 0 0 0 769.3 28.7 A 13.23 13.23 0 0 0 762.587 30.566 A 17.586 17.586 0 0 0 760.55 31.95 Q 756.4 35.2 753.5 39.6 L 753.5 74 Z M 117.4 95.2 L 119.4 87.7 A 9.908 9.908 0 0 0 120.565 88.274 Q 121.388 88.619 122.4 88.9 A 13.514 13.514 0 0 0 124.679 89.317 A 17.358 17.358 0 0 0 126.4 89.4 Q 130.6 89.4 133.9 86.7 A 12.003 12.003 0 0 0 135.833 84.639 Q 137.581 82.328 139.241 78.475 A 58.58 58.58 0 0 0 140.2 76.1 L 142.5 70.1 L 137.7 70.1 L 117.4 24.4 L 125.4 20.8 L 144.8 64.1 L 159.9 21.2 L 168.2 24.4 L 149.1 76.6 A 71.728 71.728 0 0 1 147.047 81.686 Q 145.945 84.126 144.778 86.114 A 30.86 30.86 0 0 1 142.8 89.1 A 24.268 24.268 0 0 1 139.922 92.311 Q 138.008 94.079 135.905 95.118 A 14.737 14.737 0 0 1 135.3 95.4 Q 131.2 97.2 126.2 97.2 Q 123.2 97.2 120.95 96.6 Q 118.7 96 117.4 95.2 Z M 446 71.5 L 437.3 75 L 429.5 55 L 397.1 55 L 389.3 74.8 L 381.2 71.5 L 408.6 4 L 419 4 L 446 71.5 Z M 735.5 71.5 L 726.8 75 L 719 55 L 686.6 55 L 678.8 74.8 L 670.7 71.5 L 698.1 4 L 708.5 4 L 735.5 71.5 Z M 306.9 69.8 L 310.7 62.3 A 18.557 18.557 0 0 0 313.844 64.426 Q 315.398 65.27 317.25 65.95 A 24.073 24.073 0 0 0 324.861 67.387 A 27.464 27.464 0 0 0 325.7 67.4 Q 331.092 67.4 333.935 65.685 A 7.738 7.738 0 0 0 334.15 65.55 Q 337 63.7 337 60.8 A 7.123 7.123 0 0 0 336.686 58.653 A 6.212 6.212 0 0 0 335.95 57.1 A 6.384 6.384 0 0 0 335.021 56.006 Q 334.007 55.034 332.334 54.081 A 22.3 22.3 0 0 0 332.1 53.95 A 28.462 28.462 0 0 0 330.106 52.957 Q 327.99 51.995 325.001 50.946 A 103.602 103.602 0 0 0 324 50.6 A 46.616 46.616 0 0 1 319.602 48.857 Q 317.488 47.883 315.812 46.795 A 19.335 19.335 0 0 1 313.05 44.65 A 11.324 11.324 0 0 1 309.756 38.654 A 16.794 16.794 0 0 1 309.4 35.1 Q 309.4 29.1 314.65 24.95 Q 319.054 21.469 326.308 20.908 A 37.527 37.527 0 0 1 329.2 20.8 A 40.794 40.794 0 0 1 333.646 21.031 Q 335.954 21.284 337.97 21.815 A 25.234 25.234 0 0 1 338.1 21.85 Q 342 22.9 345.1 24.5 L 342.6 31.9 Q 339.9 30.3 336.45 29.3 A 25.024 25.024 0 0 0 331.967 28.453 A 31.837 31.837 0 0 0 328.8 28.3 A 20.632 20.632 0 0 0 325.863 28.495 Q 322.777 28.94 320.9 30.4 A 9.322 9.322 0 0 0 319.542 31.673 Q 318.84 32.492 318.505 33.365 A 4.529 4.529 0 0 0 318.2 35 A 4.921 4.921 0 0 0 319.695 38.552 A 7.082 7.082 0 0 0 320.3 39.1 A 9.88 9.88 0 0 0 321.6 39.969 Q 323.873 41.271 328.298 42.734 A 84.459 84.459 0 0 0 328.5 42.8 A 67.753 67.753 0 0 1 333.562 44.698 Q 339.489 47.217 342.3 50.1 Q 346.2 54.1 346.2 60.1 Q 346.2 66.848 340.949 70.855 A 16.618 16.618 0 0 1 340.55 71.15 Q 335.81 74.547 328.362 75.095 A 40.423 40.423 0 0 1 325.4 75.2 Q 319.5 75.2 314.75 73.7 A 30.883 30.883 0 0 1 310.91 72.215 Q 308.929 71.284 307.348 70.136 A 18.229 18.229 0 0 1 306.9 69.8 Z M 475.5 69.8 L 479.3 62.3 A 18.557 18.557 0 0 0 482.444 64.426 Q 483.998 65.27 485.85 65.95 A 24.073 24.073 0 0 0 493.461 67.387 A 27.464 27.464 0 0 0 494.3 67.4 Q 499.692 67.4 502.535 65.685 A 7.738 7.738 0 0 0 502.75 65.55 Q 505.6 63.7 505.6 60.8 A 7.123 7.123 0 0 0 505.286 58.653 A 6.212 6.212 0 0 0 504.55 57.1 A 6.384 6.384 0 0 0 503.621 56.006 Q 502.607 55.034 500.934 54.081 A 22.3 22.3 0 0 0 500.7 53.95 A 28.462 28.462 0 0 0 498.706 52.957 Q 496.59 51.995 493.601 50.946 A 103.602 103.602 0 0 0 492.6 50.6 A 46.616 46.616 0 0 1 488.202 48.857 Q 486.088 47.883 484.412 46.795 A 19.335 19.335 0 0 1 481.65 44.65 A 11.324 11.324 0 0 1 478.356 38.654 A 16.794 16.794 0 0 1 478 35.1 Q 478 29.1 483.25 24.95 Q 487.654 21.469 494.908 20.908 A 37.527 37.527 0 0 1 497.8 20.8 A 40.794 40.794 0 0 1 502.246 21.031 Q 504.554 21.284 506.57 21.815 A 25.234 25.234 0 0 1 506.7 21.85 Q 510.6 22.9 513.7 24.5 L 511.2 31.9 Q 508.5 30.3 505.05 29.3 A 25.024 25.024 0 0 0 500.567 28.453 A 31.837 31.837 0 0 0 497.4 28.3 A 20.632 20.632 0 0 0 494.463 28.495 Q 491.377 28.94 489.5 30.4 A 9.322 9.322 0 0 0 488.142 31.673 Q 487.44 32.492 487.105 33.365 A 4.529 4.529 0 0 0 486.8 35 A 4.921 4.921 0 0 0 488.295 38.552 A 7.082 7.082 0 0 0 488.9 39.1 A 9.88 9.88 0 0 0 490.2 39.969 Q 492.473 41.271 496.898 42.734 A 84.459 84.459 0 0 0 497.1 42.8 A 67.753 67.753 0 0 1 502.162 44.698 Q 508.089 47.217 510.9 50.1 Q 514.8 54.1 514.8 60.1 Q 514.8 66.848 509.549 70.855 A 16.618 16.618 0 0 1 509.15 71.15 Q 504.41 74.547 496.962 75.095 A 40.423 40.423 0 0 1 494 75.2 Q 488.1 75.2 483.35 73.7 A 30.883 30.883 0 0 1 479.51 72.215 Q 477.529 71.284 475.948 70.136 A 18.229 18.229 0 0 1 475.5 69.8 Z M 990.3 27.2 L 990.3 0 L 999.3 0 L 999.3 61.4 A 12.15 12.15 0 0 0 999.402 63.036 Q 999.734 65.47 1001.15 66.35 Q 1003 67.5 1005.2 67.5 L 1003.3 74.5 Q 993.8 74.5 991.7 66.9 Q 989.5 70 985.55 72.6 Q 981.6 75.2 975.6 75.2 Q 969.2 75.2 963.9 71.9 A 22.692 22.692 0 0 1 956.362 64.109 A 27.622 27.622 0 0 1 955.5 62.55 A 27.533 27.533 0 0 1 952.912 54.608 A 37.221 37.221 0 0 1 952.4 48.3 A 33.94 33.94 0 0 1 953.289 40.386 A 27.963 27.963 0 0 1 955.55 34.2 A 27.291 27.291 0 0 1 960.169 27.609 A 24.186 24.186 0 0 1 963.95 24.4 Q 969.2 20.8 975.5 20.8 A 21.642 21.642 0 0 1 979.772 21.202 A 15.942 15.942 0 0 1 984.45 22.9 A 34.343 34.343 0 0 1 987.03 24.489 Q 988.254 25.324 989.225 26.174 A 16.59 16.59 0 0 1 990.3 27.2 Z M 112.6 51.7 L 76.2 51.7 A 24.088 24.088 0 0 0 77.339 56.725 Q 78.675 60.538 81.3 63.1 Q 85.5 67.2 92.4 67.2 Q 96.9 67.2 100.5 66.25 Q 104.1 65.3 107.4 63.8 L 109.5 71.5 A 40.77 40.77 0 0 1 105.165 73.126 A 51.863 51.863 0 0 1 101.4 74.15 A 38.914 38.914 0 0 1 96.308 74.969 A 52.025 52.025 0 0 1 91.3 75.2 A 28.318 28.318 0 0 1 83.554 74.195 A 21.108 21.108 0 0 1 73.55 68.05 A 23.521 23.521 0 0 1 68.345 58.51 Q 67 53.845 67 48 A 35.359 35.359 0 0 1 67.833 40.178 A 28.84 28.84 0 0 1 69.95 34.05 A 24.642 24.642 0 0 1 74.966 26.968 A 22.887 22.887 0 0 1 78.2 24.35 A 21.048 21.048 0 0 1 88.459 20.878 A 26.205 26.205 0 0 1 90.5 20.8 Q 98 20.8 102.95 24.05 Q 107.9 27.3 110.4 32.8 A 28.185 28.185 0 0 1 112.826 42.664 A 33.434 33.434 0 0 1 112.9 44.9 A 75.204 75.204 0 0 1 112.609 51.597 A 69.426 69.426 0 0 1 112.6 51.7 Z M 258.7 56.1 L 258.7 31.7 L 249.7 31.7 L 249.7 23.9 L 258.9 23.9 L 260.8 7.5 L 267.7 7.5 L 267.7 23.9 L 282.1 23.9 L 282.1 31.7 L 267.7 31.7 L 267.7 56.8 A 21.559 21.559 0 0 0 267.868 59.596 Q 268.341 63.202 270.15 64.9 Q 272.6 67.2 276 67.2 Q 278.5 67.2 280.75 66.4 Q 283 65.6 284.9 64.5 L 287.4 71.7 A 18.546 18.546 0 0 1 285.782 72.556 Q 284.98 72.935 284.034 73.308 A 43.365 43.365 0 0 1 282 74.05 Q 278.6 75.2 274.9 75.2 Q 267.4 75.2 263.05 70.25 A 16.116 16.116 0 0 1 259.822 64.348 Q 259.059 61.917 258.815 58.98 A 34.777 34.777 0 0 1 258.7 56.1 Z M 621.6 26.2 L 621.6 22 L 629.8 22 L 629.8 61.4 A 12.15 12.15 0 0 0 629.902 63.036 Q 630.234 65.47 631.65 66.35 Q 633.5 67.5 635.7 67.5 L 633.8 74.5 A 17.722 17.722 0 0 1 629.535 74.028 Q 623.898 72.628 622.303 67.08 A 13.59 13.59 0 0 1 622.2 66.7 A 21.307 21.307 0 0 1 619.09 70.126 A 28.498 28.498 0 0 1 615.95 72.55 Q 612 75.2 605.9 75.2 Q 599.4 75.2 594.1 71.9 A 22.947 22.947 0 0 1 586.687 64.373 A 27.923 27.923 0 0 1 585.65 62.55 A 27.228 27.228 0 0 1 583.02 54.608 A 36.644 36.644 0 0 1 582.5 48.3 A 33.142 33.142 0 0 1 583.497 40.031 A 27.968 27.968 0 0 1 585.65 34.3 Q 588.8 28.1 594.35 24.45 A 22.297 22.297 0 0 1 605.545 20.844 A 27.388 27.388 0 0 1 607.1 20.8 A 22.584 22.584 0 0 1 611.894 21.29 A 18.703 18.703 0 0 1 615.25 22.35 A 26.002 26.002 0 0 1 619.537 24.644 A 22.103 22.103 0 0 1 621.6 26.2 Z M 930.8 26.2 L 930.8 22 L 939 22 L 939 61.4 A 12.15 12.15 0 0 0 939.102 63.036 Q 939.434 65.47 940.85 66.35 Q 942.7 67.5 944.9 67.5 L 943 74.5 A 17.722 17.722 0 0 1 938.735 74.028 Q 933.098 72.628 931.503 67.08 A 13.59 13.59 0 0 1 931.4 66.7 A 21.307 21.307 0 0 1 928.29 70.126 A 28.498 28.498 0 0 1 925.15 72.55 Q 921.2 75.2 915.1 75.2 Q 908.6 75.2 903.3 71.9 A 22.947 22.947 0 0 1 895.887 64.373 A 27.923 27.923 0 0 1 894.85 62.55 A 27.228 27.228 0 0 1 892.22 54.608 A 36.644 36.644 0 0 1 891.7 48.3 A 33.142 33.142 0 0 1 892.697 40.031 A 27.968 27.968 0 0 1 894.85 34.3 Q 898 28.1 903.55 24.45 A 22.297 22.297 0 0 1 914.745 20.844 A 27.388 27.388 0 0 1 916.3 20.8 A 22.584 22.584 0 0 1 921.094 21.29 A 18.703 18.703 0 0 1 924.45 22.35 A 26.002 26.002 0 0 1 928.737 24.644 A 22.103 22.103 0 0 1 930.8 26.2 Z M 239.7 74 L 230.2 74 L 230.2 4 L 239.7 4 L 239.7 74 Z M 464 74 L 455 74 L 455 22 L 464 22 L 464 74 Z M 620.8 60.7 L 620.8 32.8 Q 618.1 30.9 614.85 29.75 Q 611.6 28.6 608 28.6 A 15.924 15.924 0 0 0 603.029 29.354 A 14.024 14.024 0 0 0 599.55 31.05 A 16.301 16.301 0 0 0 594.531 36.474 A 19.962 19.962 0 0 0 593.8 37.85 A 20.663 20.663 0 0 0 592.047 43.527 A 27.678 27.678 0 0 0 591.7 48 Q 591.7 53.6 593.8 57.95 A 17.602 17.602 0 0 0 596.906 62.496 A 15.697 15.697 0 0 0 599.6 64.75 Q 603.3 67.2 607.9 67.2 Q 611.7 67.2 615.1 65.35 Q 618.5 63.5 620.8 60.7 Z M 930 60.7 L 930 32.8 Q 927.3 30.9 924.05 29.75 Q 920.8 28.6 917.2 28.6 A 15.924 15.924 0 0 0 912.229 29.354 A 14.024 14.024 0 0 0 908.75 31.05 A 16.301 16.301 0 0 0 903.731 36.474 A 19.962 19.962 0 0 0 903 37.85 A 20.663 20.663 0 0 0 901.247 43.527 A 27.678 27.678 0 0 0 900.9 48 Q 900.9 53.6 903 57.95 A 17.602 17.602 0 0 0 906.106 62.496 A 15.697 15.697 0 0 0 908.8 64.75 Q 912.5 67.2 917.1 67.2 Q 920.9 67.2 924.3 65.35 Q 927.7 63.5 930 60.7 Z M 990.3 60.9 L 990.3 35.1 A 15.847 15.847 0 0 0 988.189 32.927 Q 987.068 31.964 985.669 31.066 A 28.139 28.139 0 0 0 985 30.65 Q 981.6 28.6 977.5 28.6 A 14.946 14.946 0 0 0 972.544 29.4 A 13.385 13.385 0 0 0 969.1 31.2 A 16.69 16.69 0 0 0 963.93 37.35 A 19.924 19.924 0 0 0 963.55 38.15 A 22.19 22.19 0 0 0 961.81 44.514 A 28.113 28.113 0 0 0 961.6 48 A 24.757 24.757 0 0 0 962.193 53.519 A 20.327 20.327 0 0 0 963.7 57.85 A 18.205 18.205 0 0 0 966.74 62.363 A 16.122 16.122 0 0 0 969.45 64.7 Q 973.1 67.2 977.6 67.2 Q 981.3 67.2 984.65 65.45 Q 988 63.7 990.3 60.9 Z M 413.3 13.4 L 400.1 47 L 426.4 47 L 413.3 13.4 Z M 702.8 13.4 L 689.6 47 L 715.9 47 L 702.8 13.4 Z M 76.1 44.4 L 104.6 44.4 A 24.355 24.355 0 0 0 104.196 39.815 Q 103.7 37.231 102.596 35.207 A 12.422 12.422 0 0 0 100.8 32.7 A 12.488 12.488 0 0 0 93.839 28.924 A 18.395 18.395 0 0 0 90.3 28.6 A 13.58 13.58 0 0 0 85.188 29.535 A 12.524 12.524 0 0 0 80.7 32.65 Q 76.9 36.7 76.1 44.4 Z M 169.1 90 L 164.2 87.2 Q 168.2 82.1 170.65 76.9 A 45.021 45.021 0 0 0 173.042 70.575 A 58.438 58.438 0 0 0 174.4 65 L 183.2 67.5 A 34.018 34.018 0 0 1 181.205 75.449 A 28.626 28.626 0 0 1 178.45 80.8 Q 174.7 86.5 169.1 90 Z M 299.5 26.2 L 292.4 26.2 L 291.6 4 L 300.3 4 L 299.5 26.2 Z M 455.137 11.288 A 5.973 5.973 0 0 0 459.5 13.1 A 8.175 8.175 0 0 0 460.996 12.969 A 5.647 5.647 0 0 0 464.1 11.35 Q 465.8 9.6 465.8 6.8 A 7.26 7.26 0 0 0 465.8 6.719 A 6.06 6.06 0 0 0 463.95 2.35 A 7.395 7.395 0 0 0 463.892 2.293 A 6.059 6.059 0 0 0 459.5 0.5 A 8.264 8.264 0 0 0 457.844 0.658 A 5.661 5.661 0 0 0 454.9 2.2 A 5.588 5.588 0 0 0 453.429 4.832 A 7.987 7.987 0 0 0 453.2 6.8 A 5.992 5.992 0 0 0 453.692 9.219 A 6.643 6.643 0 0 0 455.05 11.2 A 7.466 7.466 0 0 0 455.137 11.288 Z" vector-effect="non-scaling-stroke"/></g></svg>